<?xml version="1.0" encoding="utf-8"?>
<!-- Generator: Adobe Illustrator 23.0.1, SVG Export Plug-In . SVG Version: 6.00 Build 0)  -->
<svg version="1.1" id="Layer_1" xmlns="http://www.w3.org/2000/svg" xmlns:xlink="http://www.w3.org/1999/xlink" x="0px" y="0px"
	 viewBox="0 0 100 100" style="enable-background:new 0 0 100 100;" xml:space="preserve">
<path d="M3.7,11.9h8.9l20.1,60.2c-4.2,1.5-7.3,5.5-7.3,10.2c0,6,4.9,10.8,10.8,10.8S47,88.3,47,82.3c0-2-0.5-3.8-1.5-5.4h27.3
	c-0.9,1.6-1.5,3.4-1.5,5.4c0,6,4.9,10.8,10.8,10.8c6,0,10.8-4.9,10.8-10.8c0-6-4.9-10.8-10.8-10.8H38.2l-3.6-10.8H85
	c1.2,0,2.2-0.7,2.6-1.9l10.8-32.5c0.3-0.8,0.1-1.7-0.4-2.4c-0.5-0.7-1.3-1.1-2.2-1.1H21.9L17.1,8.3c-0.4-1.1-1.4-1.9-2.6-1.9H3.7
	C2.2,6.4,1,7.7,1,9.2S2.2,11.9,3.7,11.9z M82.2,76.9c3,0,5.4,2.4,5.4,5.4s-2.4,5.4-5.4,5.4s-5.4-2.4-5.4-5.4S79.3,76.9,82.2,76.9z
	 M36.2,76.9c3,0,5.4,2.4,5.4,5.4s-2.4,5.4-5.4,5.4c-3,0-5.4-2.4-5.4-5.4S33.2,76.9,36.2,76.9z M92,28.1l-9,27.1H32.7l-9-27.1H92z"/>
</svg>
